# AST/ASF file generated using VICON BodyLanguage
# -----------------------------------------------
:version 1.10
:name VICON
:units
  mass 1.0
  length 0.45
  angle deg
:documentation
   .ast/.asf automatically generated from VICON data using
   VICON BodyBuilder and BodyLanguage model FoxedUp or BRILLIANT.MOD
:root
   order TX TY TZ RX RY RZ
   axis XYZ
   position 0 0 0  
   orientation 0 0 0 
:bonedata
  begin
     id 1 
     name lhipjoint
     direction 0.64773 -0.699417 0.302095 
     length 2.48597 
     axis 0 0 0  XYZ
  end
  begin
     id 2 
     name lfemur
     direction 0.34202 -0.939693 0  
     length 6.71947  
     axis 0 0 20  XYZ
    dof rx ry rz
    limits (-160.0 20.0)
           (-70.0 70.0)
           (-60.0 70.0)
  end
  begin
     id 3 
     name ltibia
     direction 0.34202 -0.939693 0   
     length 8.08777   
     axis 0 0 20   XYZ
    dof rx
    limits (-10.0 170.0)
  end
  begin
     id 4 
     name lfoot
     direction 0.0808503 -0.222134 0.971658   
     length 2.08264   
     axis -90 7.62852e-016 20   XYZ
    dof rx rz
    limits (-45.0 90.0)
           (-70.0 20.0)
  end
  begin
     id 5 
     name ltoes
     direction 1.53502e-011 -4.22007e-011 1   
     length 1.04662   
     axis -90 7.62852e-016 20   XYZ
    dof rx
    limits (-90.0 20.0)
  end
  begin
     id 6 
     name rhipjoint
     direction -0.610924 -0.726792 0.313919   
     length 2.39233  
     axis 0 0 0  XYZ 
  end
  begin
     id 7 
     name rfemur
     direction -0.34202 -0.939693 0   
     length 6.96955   
     axis 0 0 -20   XYZ
    dof rx ry rz
    limits (-160.0 20.0)
           (-70.0 70.0)
           (-70.0 60.0)
  end
  begin
     id 8 
     name rtibia
     direction -0.34202 -0.939693 0   
     length 8.19584   
     axis 0 0 -20   XYZ
    dof rx
    limits (-10.0 170.0)
 end
 begin
     id 9 
     name rfoot
     direction -0.077777 -0.213691 0.9738   
     length 2.07539  
     axis -90 -7.62852e-016 -20   XYZ
    dof rx rz
    limits (-45.0 90.0)
           (-20.0 70.0)
  end
  begin
     id 10 
     name rtoes
     direction -1.53558e-011 -4.22006e-011 1   
     length 1.04381   
     axis -90 -7.62852e-016 -20   XYZ
    dof rx
    limits (-90.0 20.0)
  end
  begin
     id 11 
     name lowerback
     direction -0.00971646 0.996074 0.0879841   
     length 1.67643   
     axis 0 0 0   XYZ
    dof rx ry rz
    limits (-20.0 45.0)
           (-30.0 30.0)
           (-30.0 30.0)
  end
  begin
     id 12 
     name upperback
     direction 0.0127391 0.991676 0.128127   
     length 1.63741   
     axis 0 0 0   XYZ
    dof rx ry rz
    limits (-20.0 45.0)
           (-30.0 30.0)
           (-30.0 30.0)
  end
  begin
     id 13 
     name thorax
     direction 0.0167583 0.996049 0.0872067   
     length 1.65931   
     axis 0 0 0   XYZ
    dof rx ry rz
    limits (-20.0 45.0)
           (-30.0 30.0)
           (-30.0 30.0)
  end
  begin
     id 14 
     name lowerneck
     direction -0.0317829 0.998312 0.0486079   
     length 1.79021   
     axis 0 0 0   XYZ
    dof rx ry rz
    limits (-20.0 45.0)
           (-30.0 30.0)
           (-30.0 30.0)
  end
  begin
     id 15 
     name upperneck
     direction 0.0896851 0.972452 -0.215159   
     length 1.78797   
     axis 0 0 0   XYZ
    dof rx ry rz
    limits (-20.0 45.0)
           (-30.0 30.0)
           (-30.0 30.0)
  end
  begin
     id 16
     name head
     direction 0.0310949 0.996503 -0.0775582  
     length 1.81549  
     axis 0 0 0   XYZ
    dof rx ry rz
    limits (-20.0 45.0)
           (-30.0 30.0)
           (-30.0 30.0)
  end
  begin
     id 17 
     name lclavicle
     direction 0.853638 0.502051 -0.138733  
     length 3.31627  
     axis 0 0 0   XYZ
    dof ry rz
    limits (-20.0 10.0)
           (0.0 20.0)
  end
  begin
     id 18 
     name lhumerus
     direction 1 -4.48962e-011 -1.41788e-018   
     length 5.54893   
     axis 180 -30 -90   XYZ
    dof rx ry rz
    limits (-60.0 90.0)
           (-90.0 90.0)
           (-90.0 90.0)
  end
  begin
     id 19
     name lradius
     direction 1 -4.48962e-011 -4.95754e-027   
     length 3.02898   
     axis 180 -30 -90   XYZ
    dof rx
    limits (-10.0 170.0)
  end
  begin
     id 20
     name lwrist
     direction 1 -4.48952e-011 -1.03764e-026   
     length 1.51449   
     axis 9.09556e-015 90 90   XYZ
    dof ry
    limits (-180.0 0.0)
 end
  begin
     id 21 
     name lhand
     direction 1 -4.4902e-011 -2.07528e-026   
     length 0.640951   
     axis 1.3242e-014 90 90   XYZ
    dof rx rz
    limits (-90.0 90.0)
           (-45.0 45.0)
  end
  begin
     id 22 
     name lfingers
     direction 1 -4.49014e-011 -4.15056e-026   
     length 0.516751   
     axis 2.64841e-014 90 90   XYZ
    dof rx
    limits (0.0 90.0)
  end
  begin
     id 23
     name lthumb
     direction 0.707107 -6.35008e-011 0.707107   
     length 0.741954   
     axis -90 45 2.85299e-015   XYZ
    dof rx rz
    limits (-45.0 45.0)
           (-45.0 45.0)
  end
  begin
     id 24 
     name rclavicle
     direction -0.888531 0.455324 -0.0565039   
     length 3.20126  
     axis 0 0 0   XYZ 
    dof ry rz
    limits (-10.0 20.0)
           (-20.0 0.0)
  end
  begin
     id 25 
     name rhumerus
     direction -1 -4.48946e-011 -8.98298e-028  
     length 5.3519   
     axis 180 30 90   XYZ
    dof rx ry rz
    limits (-90.0 60.0)
           (-90.0 90.0)
           (-90.0 90.0)
  end
  begin
     id 26 
     name rradius
     direction -1 -4.4899e-011 -3.18779e-027   
     length 3.02531   
     axis 180 30 90   XYZ
    dof rx
    limits (-10.0 170.0)
  end
  begin
     id 27 
     name rwrist
     direction -1 -4.4897e-011 -1.03764e-026   
     length 1.51266   
     axis 9.09556e-015 -90 -90   XYZ
    dof ry
    limits (-180.0 0.0)
  end
  begin
     id 28
     name rhand
     direction -1 -4.48941e-011 -2.07528e-026   
     length 0.78389   
     axis 1.3242e-014 -90 -90   XYZ
    dof rx rz
    limits (-90.0 90.0)
           (-45.0 45.0)
  end
  begin
     id 29
     name rfingers
     direction -1 -4.49012e-011 -4.15056e-026   
     length 0.631992   
     axis 2.64841e-014 -90 -90   XYZ
    dof rx
    limits (0.0 90.0)
  end
  begin
     id 30
     name rthumb
     direction -0.707107 -6.3496e-011 0.707107   
     length 0.907418   
     axis -90 -45 -2.85299e-015   XYZ
    dof rx rz
    limits (-45.0 45.0)
           (-45.0 45.0)
  end
:hierarchy
  begin
    root lhipjoint rhipjoint lowerback
    lhipjoint lfemur
    lfemur ltibia
    ltibia lfoot
    lfoot ltoes
    rhipjoint rfemur
    rfemur rtibia
    rtibia rfoot
    rfoot rtoes
    lowerback upperback
    upperback thorax
    thorax lowerneck lclavicle rclavicle
    lowerneck upperneck
    upperneck head
    lclavicle lhumerus
    lhumerus lradius
    lradius lwrist
    lwrist lhand lthumb
    lhand lfingers
    rclavicle rhumerus
    rhumerus rradius
    rradius rwrist
    rwrist rhand rthumb
    rhand rfingers
  end

#!OML:ASF E:\Style3\Style3.ASF
:FULLY-SPECIFIED
:DEGREES
65
root -2.44083 17.0187 1.42444 -89.7852 84.7562 -137.974
lowerback 28.4489 -2.26345 -1.91786
upperback 13.1234 -2.10243 -1.9947
thorax -0.967113 -0.581593 -0.502115
lowerneck -20.0023 -2.2601 -5.08792
upperneck 35.2892 -2.49456 5.7486
head 16.0943 -0.732227 2.95985
rclavicle -2.38542e-014 -4.80313e-014
rhumerus -55.82 37.6772 -79.8505
rradius 100.446
rwrist -27.6783
rhand 33.0717 7.78197
rfingers 7.12502
rthumb 56.4453 -9.25694
lclavicle -2.38542e-014 -4.80313e-014
lhumerus -48.5614 -8.92826 62.9756
lradius 118.068
lwrist 31.0829
lhand 23.2865 38.2495
lfingers 7.12502
lthumb 47.5835 60.6543
rfemur -74.485 0.258358 24.513
rtibia 34.5615
rfoot -8.63057 -3.68402
rtoes -16.8809
lfemur -71.2782 -2.05655 1.99179
ltibia 30.574
lfoot -5.63718 18.3733
ltoes -23.7798
66
root -2.44999 16.9699 1.42039 -90.3297 84.6315 -139.255
lowerback 28.3506 -2.32457 -1.90449
upperback 13.3198 -2.14379 -2.03587
thorax -0.701815 -0.595908 -0.547441
lowerneck -20.0271 -2.22372 -5.16401
upperneck 34.9092 -2.48066 5.86513
head 15.9129 -0.724145 3.00941
rclavicle -1.43125e-014 -1.18153e-014
rhumerus -55.3813 37.7184 -79.7018
rradius 100.373
rwrist -27.6229
rhand 32.8934 8.01175
rfingers 7.12502
rthumb 56.2877 -9.15263
lclavicle -1.43125e-014 -1.18153e-014
lhumerus -48.2994 -8.67832 62.7345
lradius 118.338
lwrist 30.6005
lhand 23.032 38.9555
lfingers 7.12502
lthumb 47.3485 61.4667
rfemur -75.7798 0.0431335 24.8537
rtibia 35.3052
rfoot -8.81745 -3.38589
rtoes -16.8267
lfemur -72.5433 -1.45224 1.68278
ltibia 31.2046
lfoot -5.99966 17.6549
ltoes -22.7529
67
root -2.45743 16.9197 1.41847 -90.53 84.5392 -140.122
lowerback 28.3375 -2.34602 -1.96384
upperback 13.5082 -2.15399 -2.09711
thorax -0.481042 -0.596302 -0.580523
lowerneck -20.094 -2.1993 -5.15342
upperneck 34.6042 -2.48791 5.92035
head 15.7795 -0.720956 3.01632
rclavicle -6.67916e-014 -3.18055e-014
rhumerus -55.0113 37.6972 -79.6309
rradius 100.315
rwrist -27.5741
rhand 32.8822 8.06265
rfingers 7.12502
rthumb 56.2778 -9.10952
lclavicle -6.67916e-014 -3.18055e-014
lhumerus -48.0572 -8.44454 62.4842
lradius 118.67
lwrist 30.0254
lhand 22.525 39.9175
lfingers 7.12502
lthumb 46.8796 62.6365
rfemur -77.044 -0.0910441 25.1173
rtibia 36.1422
rfoot -9.08081 -3.15393
rtoes -16.2663
lfemur -73.8243 -0.776129 1.16728
ltibia 32.0255
lfoot -6.10999 16.8646
ltoes -22.9037
68
root -2.46875 16.8625 1.4132 -90.2603 84.5537 -140.675
lowerback 28.1189 -2.35772 -2.08044
upperback 13.6535 -2.17468 -2.22183
thorax -0.215634 -0.605924 -0.650435
lowerneck -20.1092 -2.16672 -4.99645
upperneck 34.3329 -2.49245 5.85776
head 15.6467 -0.714012 2.94789
rclavicle -1.11319e-014 -2.43511e-015
rhumerus -54.7379 37.6858 -79.6423
rradius 100.317
rwrist -27.539
rhand 32.8958 8.04177
rfingers 7.12502
rthumb 56.2899 -9.12089
lclavicle -1.11319e-014 -2.43511e-015
lhumerus -47.8324 -8.18251 62.1753
lradius 118.781
lwrist 29.334
lhand 22.3353 39.8527
lfingers 7.12502
lthumb 46.7041 62.6482
rfemur -78.5406 -0.243246 25.3318
rtibia 37.0119
rfoot -9.31555 -2.86989
rtoes -15.8339
lfemur -75.329 -0.19187 0.786592
ltibia 32.9504
lfoot -6.53312 16.2478
ltoes -21.7408
69
root -2.48291 16.7965 1.40273 -89.7461 84.4896 -141.19
lowerback 27.5611 -2.41688 -2.01863
upperback 13.8012 -2.2142 -2.34531
thorax 0.19775 -0.621389 -0.821395
lowerneck -20.1294 -2.13443 -4.92921
upperneck 34.0057 -2.51317 5.92372
head 15.4946 -0.708088 2.94592
rclavicle -1.74931e-014 -3.76697e-014
rhumerus -54.3886 37.6631 -79.6424
rradius 100.279
rwrist -27.5304
rhand 32.9717 8.12973
rfingers 7.12502
rthumb 56.357 -8.97968
lclavicle -1.74931e-014 -3.76697e-014
lhumerus -47.5892 -7.89678 61.8073
lradius 118.845
lwrist 28.7746
lhand 22.136 39.732
lfingers 7.12502
lthumb 46.5195 62.6071
rfemur -80.2756 -0.406296 25.6732
rtibia 37.8684
rfoot -9.50283 -2.54577
rtoes -15.6808
lfemur -77.0859 0.384768 0.585927
ltibia 33.9045
lfoot -6.97827 15.7462
ltoes -20.249
70
root -2.49011 16.7397 1.39627 -89.6319 84.3472 -141.908
lowerback 27.1761 -2.47852 -1.96307
upperback 14.0092 -2.24543 -2.4373
thorax 0.603755 -0.62922 -0.955016
lowerneck -20.2477 -2.06478 -4.87214
upperneck 33.7439 -2.4895 6.04153
head 15.3955 -0.677197 2.97968
rclavicle 2.8625e-014 2.09718e-014
rhumerus -53.9418 37.6677 -79.6319
rradius 100.187
rwrist -27.5598
rhand 33.0185 8.19281
rfingers 7.12502
rthumb 56.3983 -8.88367
lclavicle 2.8625e-014 2.09718e-014
lhumerus -47.3754 -7.58875 61.3983
lradius 119.009
lwrist 28.228
lhand 22.1029 39.8174
lfingers 7.12502
lthumb 46.4888 62.7056
rfemur -81.7275 -0.558164 26.0868
rtibia 38.7009
rfoot -9.7404 -2.29173
rtoes -15.815
lfemur -78.6232 1.02394 0.127927
ltibia 34.8561
lfoot -7.03917 15.0527
ltoes -20.8008
71
root -2.49228 16.6929 1.39325 -90.303 84.1574 -143.143
lowerback 27.0925 -2.54636 -1.95006
upperback 14.2633 -2.28162 -2.47928
thorax 0.929418 -0.637433 -1.00459
lowerneck -20.2685 -1.95015 -4.55165
upperneck 33.4302 -2.36158 5.76685
head 15.2307 -0.624837 2.81575
rclavicle -4.45278e-014 -8.94531e-015
rhumerus -53.462 37.6795 -79.5319
rradius 100.097
rwrist -27.696
rhand 32.9982 8.09341
rfingers 7.12502
rthumb 56.3803 -8.99741
lclavicle -4.45278e-014 -8.94531e-015
lhumerus -47.1867 -7.22089 61.0479
lradius 119.177
lwrist 27.7817
lhand 22.0903 39.8861
lfingers 7.12502
lthumb 46.4772 62.7793
rfemur -82.8472 -0.756994 26.5282
rtibia 39.5091
rfoot -10.0156 -2.04528
rtoes -15.6699
lfemur -79.8862 1.56019 -0.38126
ltibia 35.7824
lfoot -7.17423 14.3174
ltoes -21.1553
72
root -2.49366 16.6431 1.39279 -90.4226 83.9877 -143.86
lowerback 26.9804 -2.5719 -2.00077
upperback 14.4957 -2.28251 -2.50379
thorax 1.24847 -0.634208 -1.00838
lowerneck -20.1979 -1.8599 -4.30898
upperneck 33.0262 -2.26894 5.5599
head 15.0105 -0.589028 2.68549
rclavicle 0 4.33351e-014
rhumerus -53.0547 37.6429 -79.3857
rradius 100.106
rwrist -27.9309
rhand 33.4254 7.47314
rfingers 7.12502
rthumb 56.7573 -9.31325
lclavicle 0 4.33351e-014
lhumerus -46.9665 -6.82806 60.7372
lradius 119.194
lwrist 27.3674
lhand 22.0312 39.6362
lfingers 7.12502
lthumb 46.4224 62.5528
rfemur -83.9961 -0.931213 27.0723
rtibia 40.3078
rfoot -10.2656 -1.74321
rtoes -16.0165
lfemur -81.1408 2.13038 -0.867106
ltibia 36.6652
lfoot -7.26589 13.6169
ltoes -21.8297
73
root -2.49426 16.5901 1.39281 -90.1482 83.8984 -144.261
lowerback 26.7939 -2.57104 -2.10222
upperback 14.6943 -2.26746 -2.54123
thorax 1.56576 -0.627951 -1.00239
lowerneck -20.3006 -1.8629 -4.64507
upperneck 32.6999 -2.26842 5.85424
head 14.892 -0.592908 2.8564
rclavicle -3.02153e-014 -1.98785e-015
rhumerus -52.5953 37.516 -79.2935
rradius 100.045
rwrist -27.9136
rhand 33.8659 6.92446
rfingers 7.12502
rthumb 57.1449 -9.5402
lclavicle -3.02153e-014 -1.98785e-015
lhumerus -46.7369 -6.4066 60.4369
lradius 119.161
lwrist 26.9753
lhand 22.0172 39.5867
lfingers 7.12502
lthumb 46.4094 62.5087
rfemur -85.247 -1.05305 27.5287
rtibia 41.1093
rfoot -10.482 -1.42867
rtoes -16.005
lfemur -82.4264 2.75233 -1.47273
ltibia 37.4736
lfoot -7.30556 12.8348
ltoes -22.7089
74
root -2.49178 16.5404 1.39181 -90.2368 83.8633 -144.899
lowerback 26.7232 -2.58216 -2.21676
upperback 14.9163 -2.26375 -2.62624
thorax 1.85638 -0.622568 -1.03626
lowerneck -20.451 -1.90463 -5.07362
upperneck 32.4738 -2.33724 6.3077
head 14.8411 -0.613803 3.10164
rclavicle 3.49861e-014 6.16232e-015
rhumerus -52.1504 37.3659 -79.3576
rradius 99.9993
rwrist -27.4679
rhand 33.3397 7.33897
rfingers 7.12502
rthumb 56.6818 -9.50908
lclavicle 3.49861e-014 6.16232e-015
lhumerus -46.5044 -6.02687 60.1186
lradius 119.143
lwrist 26.627
lhand 21.8319 39.642
lfingers 7.12502
lthumb 46.2376 62.6369
rfemur -86.3708 -1.21941 27.9148
rtibia 41.9455
rfoot -10.6907 -1.12251
rtoes -16.3892
lfemur -83.5528 3.2795 -2.18658
ltibia 38.2047
lfoot -7.37869 12.0852
ltoes -23.0783
75
root -2.48946 16.4988 1.39238 -91.5825 83.7412 -146.619
lowerback 26.9072 -2.63769 -2.29166
upperback 15.1615 -2.29866 -2.68553
thorax 2.05701 -0.630003 -1.05105
lowerneck -20.5063 -1.89486 -5.1518
upperneck 32.2289 -2.38767 6.55011
head 14.7504 -0.613371 3.1976
rclavicle -1.74931e-014 -3.49861e-014
rhumerus -51.7704 37.3549 -79.4229
rradius 100.001
rwrist -26.9103
rhand 32.6774 8.00596
rfingers 7.12502
rthumb 56.0966 -9.30866
lclavicle -1.74931e-014 -3.49861e-014
lhumerus -46.2851 -5.6683 59.8136
lradius 119.078
lwrist 26.2978
lhand 21.6405 39.6111
lfingers 7.12502
lthumb 46.0601 62.6805
rfemur -87.2891 -1.48728 28.3354
rtibia 42.7582
rfoot -10.9312 -0.856639
rtoes -16.7477
lfemur -84.5114 3.57195 -2.69204
ltibia 38.9209
lfoot -7.61517 11.4285
ltoes -22.735
76
root -2.48927 16.4541 1.39305 -95.627 83.569 -151.046
lowerback 27.2185 -2.82573 -2.27977
upperback 15.3715 -2.47978 -2.69404
thorax 2.15662 -0.703946 -1.02115
lowerneck -20.4093 -1.75862 -5.05743
upperneck 31.726 -2.23306 6.5112
head 14.485 -0.546339 3.16986
rclavicle 4.29375e-014 1.66979e-014
rhumerus -51.4602 37.4176 -79.319
rradius 100.083
rwrist -26.7533
rhand 32.7331 8.16183
rfingers 7.12502
rthumb 56.1459 -9.11423
lclavicle 4.29375e-014 1.66979e-014
lhumerus -46.1424 -5.25546 59.5369
lradius 119.006
lwrist 26.0342
lhand 21.6803 39.7353
lfingers 7.12502
lthumb 46.0971 62.7893
rfemur -88.2411 -1.95849 28.5386
rtibia 43.5879
rfoot -11.189 -0.844586
rtoes -16.5283
lfemur -85.5508 3.52785 -3.15897
ltibia 39.5999
lfoot -7.79567 10.8035
ltoes -22.6768
77
root -2.48545 16.4046 1.39767 -94.0673 83.485 -150.102
lowerback 26.973 -2.73546 -2.49322
upperback 15.5701 -2.37488 -2.73942
thorax 2.51014 -0.662785 -0.984545
lowerneck -20.383 -1.56988 -4.79291
upperneck 31.312 -1.98998 6.2638
head 14.2671 -0.448965 3.04667
rclavicle -1.59028e-014 -3.02153e-014
rhumerus -51.1681 37.391 -79.1935
rradius 100.116
rwrist -26.7779
rhand 33.018 8.14194
rfingers 7.12502
rthumb 56.3979 -8.93487
lclavicle -1.59028e-014 -3.02153e-014
lhumerus -45.9726 -4.87854 59.2268
lradius 118.883
lwrist 25.9518
lhand 21.54 39.7301
lfingers 7.12502
lthumb 45.9669 62.8384
rfemur -89.3931 -1.89816 29.076
rtibia 44.3695
rfoot -11.4269 -0.499811
rtoes -16.5778
lfemur -86.6947 4.26289 -3.82096
ltibia 40.3397
lfoot -7.92933 9.96221
ltoes -22.7398
78
root -2.47683 16.3566 1.39456 -95.3749 83.4324 -151.89
lowerback 26.9933 -2.79822 -2.5909
upperback 15.7915 -2.42449 -2.82059
thorax 2.76128 -0.680741 -1.01042
lowerneck -20.4902 -1.47559 -4.4742
upperneck 31.0956 -1.86932 5.93927
head 14.1778 -0.405986 2.87099
rclavicle 4.6118e-014 -3.18055e-015
rhumerus -50.8856 37.3729 -79.1251
rradius 100.188
rwrist -26.5817
rhand 32.9172 8.3529
rfingers 7.12502
rthumb 56.3088 -8.79477
lclavicle 4.6118e-014 -3.18055e-015
lhumerus -45.7855 -4.51694 58.9327
lradius 118.774
lwrist 25.8655
lhand 21.5342 39.61
lfingers 7.12502
lthumb 45.9615 62.7205
rfemur -90.4127 -2.16922 29.4139
rtibia 45.1496
rfoot -11.657 -0.324645
rtoes -17.0366
lfemur -87.7304 4.46061 -4.36827
ltibia 41.0364
lfoot -8.07004 9.38502
ltoes -22.6531
79
root -2.4709 16.3071 1.39545 -95.7349 83.3837 -152.813
lowerback 26.8631 -2.81147 -2.74431
upperback 16.0125 -2.42388 -2.90294
thorax 3.08505 -0.680886 -1.02156
lowerneck -20.6336 -1.45653 -4.37002
upperneck 30.886 -1.86643 5.8763
head 14.1147 -0.402374 2.82055
rclavicle -6.36111e-014 -2.90226e-014
rhumerus -50.5872 37.3789 -79.0472
rradius 100.359
rwrist -26.4169
rhand 32.7964 8.4891
rfingers 7.12502
rthumb 56.2019 -8.74295
lclavicle -6.36111e-014 -2.90226e-014
lhumerus -45.5911 -4.16222 58.6331
lradius 118.689
lwrist 25.8379
lhand 21.5854 39.7775
lfingers 7.12502
lthumb 46.0091 62.8683
rfemur -91.4913 -2.31899 29.8115
rtibia 45.8909
rfoot -11.8735 -0.0319433
rtoes -17.0026
lfemur -88.882 4.82703 -4.97051
ltibia 41.7784
lfoot -8.1868 8.72357
ltoes -22.9032
